<svg xmlns="http://www.w3.org/2000/svg" style="display:none;">
  <symbol id="clofy." viewBox="0 0 487 154">
    <path d="M40.832 119.64C29.3973 119.64 20.48 116.824 14.08 111.192C7.68 105.475 4.48 97.112 4.48 86.104C4.48 75.0107 7.68 66.648 14.08 61.016C20.48 55.2987 29.3973 52.44 40.832 52.44H83.712V67.16H40.832C35.2853 67.16 31.0187 68.696 28.032 71.768C25.1307 74.84 23.68 79.6187 23.68 86.104C23.68 92.504 25.1307 97.24 28.032 100.312C31.0187 103.384 35.2853 104.92 40.832 104.92H84.992V119.64H40.832ZM91.98 119V27.48H110.54V119H91.98ZM155.837 119.64C144.402 119.64 135.485 116.824 129.085 111.192C122.685 105.475 119.485 97.112 119.485 86.104C119.485 75.0107 122.685 66.648 129.085 61.016C135.485 55.2987 144.402 52.44 155.837 52.44H179.517C190.952 52.44 199.869 55.2987 206.269 61.016C212.669 66.648 215.869 75.0107 215.869 86.104C215.869 97.112 212.669 105.475 206.269 111.192C199.869 116.824 190.952 119.64 179.517 119.64H155.837ZM155.837 104.92H179.517C185.064 104.92 189.288 103.384 192.189 100.312C195.176 97.24 196.669 92.504 196.669 86.104C196.669 79.6187 195.176 74.84 192.189 71.768C189.288 68.696 185.064 67.16 179.517 67.16H155.837C150.29 67.16 146.024 68.696 143.037 71.768C140.136 74.84 138.685 79.6187 138.685 86.104C138.685 92.504 140.136 97.24 143.037 100.312C146.024 103.384 150.29 104.92 155.837 104.92ZM239.452 119V67.8H220.38V53.08H239.452V47.96C239.452 41.9013 241.201 37.0373 244.7 33.368C248.199 29.6133 253.66 27.736 261.084 27.736H288.988V42.456H265.692C260.572 42.456 258.012 45.0587 258.012 50.264V53.08H285.404V67.8H258.012V119H239.452ZM309.648 147.8V133.08H348.304C353.424 133.08 355.984 130.477 355.984 125.272V119H316.432C308.923 119 303.419 117.123 299.92 113.368C296.507 109.613 294.8 104.749 294.8 98.776V53.08H313.36V96.6C313.36 101.72 315.92 104.28 321.04 104.28H355.344V53.08H374.544V127.576C374.544 133.635 372.795 138.499 369.296 142.168C365.797 145.923 360.336 147.8 352.912 147.8H309.648ZM386.755 119V100.696H407.235V119H386.755Z" fill="#5BD4EA"/>
  </symbol>
  <symbol id="io" viewBox="0 0 487 154">
    <path d="M419.52 119V86.04H428.8V119H419.52ZM419.456 80.6V73.368H428.864V80.6H419.456ZM454.009 119.32C448.291 119.32 443.833 117.912 440.633 115.096C437.433 112.237 435.833 108.056 435.833 102.552C435.833 97.0053 437.433 92.824 440.633 90.008C443.833 87.1493 448.291 85.72 454.009 85.72H465.849C471.566 85.72 476.025 87.1493 479.225 90.008C482.425 92.824 484.025 97.0053 484.025 102.552C484.025 108.056 482.425 112.237 479.225 115.096C476.025 117.912 471.566 119.32 465.849 119.32H454.009ZM454.009 111.96H465.849C468.622 111.96 470.734 111.192 472.185 109.656C473.678 108.12 474.425 105.752 474.425 102.552C474.425 99.3093 473.678 96.92 472.185 95.384C470.734 93.848 468.622 93.08 465.849 93.08H454.009C451.235 93.08 449.102 93.848 447.609 95.384C446.158 96.92 445.433 99.3093 445.433 102.552C445.433 105.752 446.158 108.12 447.609 109.656C449.102 111.192 451.235 111.96 454.009 111.96Z" fill="#5BD4EA"/>
  </symbol>
</svg>
